<svg width="25" height="24" fill="none" xmlns="http://www.w3.org/2000/svg"><path fill-rule="evenodd" clip-rule="evenodd" d="M12.303 0C5.506 0 0 5.506 0 12.303c0 5.445 3.522 10.043 8.413 11.674.615.107.845-.262.845-.585 0-.292-.015-1.261-.015-2.291-3.091.569-3.891-.754-4.137-1.446-.138-.354-.738-1.446-1.261-1.738-.43-.23-1.046-.8-.016-.815.97-.015 1.661.892 1.892 1.261 1.107 1.86 2.876 1.338 3.584 1.015.107-.8.43-1.338.784-1.645-2.738-.308-5.598-1.37-5.598-6.075 0-1.338.477-2.446 1.26-3.307-.122-.308-.553-1.569.124-3.26 0 0 1.03-.323 3.383 1.26.985-.276 2.03-.415 3.076-.415 1.046 0 2.092.139 3.076.416 2.353-1.6 3.384-1.261 3.384-1.261.676 1.691.246 2.952.123 3.26.784.861 1.26 1.953 1.26 3.307 0 4.721-2.875 5.767-5.613 6.075.446.384.83 1.122.83 2.276 0 1.645-.015 2.968-.015 3.383 0 .323.231.707.846.585a12.325 12.325 0 0 0 8.382-11.674C24.607 5.506 19.101 0 12.304 0Z" fill="#fff"/></svg>