<svg width="24" height="20" fill="none" xmlns="http://www.w3.org/2000/svg"><path d="M23.492 2.706a9.564 9.564 0 0 1-2.742.751 4.788 4.788 0 0 0 2.1-2.643 9.536 9.536 0 0 1-3.033 1.159 4.778 4.778 0 0 0-8.14 4.357 13.563 13.563 0 0 1-9.844-4.991 4.774 4.774 0 0 0-.646 2.401 4.778 4.778 0 0 0 2.125 3.976 4.764 4.764 0 0 1-2.164-.598v.062a4.778 4.778 0 0 0 3.832 4.684 4.811 4.811 0 0 1-2.158.081 4.78 4.78 0 0 0 4.463 3.316 9.583 9.583 0 0 1-5.933 2.046 9.74 9.74 0 0 1-1.14-.067 13.507 13.507 0 0 0 7.32 2.146c8.787 0 13.591-7.277 13.591-13.59 0-.204-.005-.411-.014-.616a9.71 9.71 0 0 0 2.381-2.471l.002-.003Z" fill="#fff"/></svg>